<svg xmlns="http://www.w3.org/2000/svg" xmlns:xlink="http://www.w3.org/1999/xlink" viewBox="0 0 738 347" width="738" height="347"><path d="M 22.500,144.406 C 25.000,144.406 25.008,144.240 27.500,144.406" stroke-width="5.361" stroke="black" fill="none" stroke-linecap="round"></path><path d="M 27.500,144.406 C 32.508,144.740 32.867,146.779 37.500,145.406" stroke-width="4.604" stroke="black" fill="none" stroke-linecap="round"></path><path d="M 37.500,145.406 C 46.367,142.779 46.812,141.941 54.500,136.406" stroke-width="3.815" stroke="black" fill="none" stroke-linecap="round"></path><path d="M 54.500,136.406 C 59.312,132.941 60.435,132.775 62.500,127.406" stroke-width="3.434" stroke="black" fill="none" stroke-linecap="round"></path><path d="M 62.500,127.406 C 65.435,119.775 64.712,118.899 64.500,110.406" stroke-width="2.966" stroke="black" fill="none" stroke-linecap="round"></path><path d="M 64.500,110.406 C 64.212,98.899 64.130,98.584 61.500,87.406" stroke-width="2.529" stroke="black" fill="none" stroke-linecap="round"></path><path d="M 61.500,87.406 C 60.130,81.584 58.921,81.940 56.500,76.406" stroke-width="2.967" stroke="black" fill="none" stroke-linecap="round"></path><path d="M 56.500,76.406 C 55.421,73.940 53.413,72.493 54.500,71.406" stroke-width="4.290" stroke="black" fill="none" stroke-linecap="round"></path><path d="M 54.500,71.406 C 55.913,69.993 58.144,70.518 61.500,71.406" stroke-width="5.038" stroke="black" fill="none" stroke-linecap="round"></path><path d="M 61.500,71.406 C 75.144,75.018 74.846,76.462 88.500,80.406" stroke-width="2.549" stroke="black" fill="none" stroke-linecap="round"></path><path d="M 88.500,80.406 C 97.346,82.962 97.542,82.235 106.500,84.406" stroke-width="2.531" stroke="black" fill="none" stroke-linecap="round"></path><path d="M 106.500,84.406 C 114.042,86.235 113.936,86.893 121.500,88.406" stroke-width="2.749" stroke="black" fill="none" stroke-linecap="round"></path><path d="M 121.500,88.406 C 123.936,88.893 125.015,87.169 126.500,88.406" stroke-width="4.084" stroke="black" fill="none" stroke-linecap="round"></path><path d="M 126.500,88.406 C 128.015,89.669 127.373,90.869 127.500,93.406" stroke-width="4.851" stroke="black" fill="none" stroke-linecap="round"></path><path d="M 127.500,93.406 C 127.873,100.869 127.500,100.906 127.500,108.406" stroke-width="3.377" stroke="black" fill="none" stroke-linecap="round"></path><path d="M 127.500,108.406 C 127.500,115.906 127.500,115.906 127.500,123.406" stroke-width="3.031" stroke="black" fill="none" stroke-linecap="round"></path><path d="M 127.500,123.406 C 127.500,136.406 127.500,136.406 127.500,149.406" stroke-width="2.349" stroke="black" fill="none" stroke-linecap="round"></path><path d="M 127.500,149.406 C 127.500,158.406 127.764,158.415 127.500,167.406" stroke-width="2.550" stroke="black" fill="none" stroke-linecap="round"></path><path d="M 127.500,167.406 C 127.264,175.415 126.776,175.399 126.500,183.406" stroke-width="2.726" stroke="black" fill="none" stroke-linecap="round"></path><path d="M 126.500,183.406 C 126.276,189.899 126.500,189.906 126.500,196.406" stroke-width="2.980" stroke="black" fill="none" stroke-linecap="round"></path><path d="M 126.500,196.406 C 126.500,205.406 126.500,205.406 126.500,214.406" stroke-width="2.739" stroke="black" fill="none" stroke-linecap="round"></path><path d="M 126.500,214.406 C 126.500,219.906 127.127,219.968 126.500,225.406" stroke-width="3.180" stroke="black" fill="none" stroke-linecap="round"></path><path d="M 126.500,225.406 C 125.627,232.968 125.735,233.143 123.500,240.406" stroke-width="2.961" stroke="black" fill="none" stroke-linecap="round"></path><path d="M 123.500,240.406 C 121.735,246.143 121.200,246.007 118.500,251.406" stroke-width="3.182" stroke="black" fill="none" stroke-linecap="round"></path><path d="M 118.500,251.406 C 116.200,256.007 116.464,256.256 113.500,260.406" stroke-width="3.400" stroke="black" fill="none" stroke-linecap="round"></path><path d="M 113.500,260.406 C 111.464,263.256 111.630,264.428 108.500,265.406" stroke-width="3.736" stroke="black" fill="none" stroke-linecap="round"></path><path d="M 108.500,265.406 C 103.630,266.928 102.696,266.840 97.500,265.406" stroke-width="4.061" stroke="black" fill="none" stroke-linecap="round"></path><path d="M 97.500,265.406 C 88.196,262.840 87.923,262.344 79.500,257.406" stroke-width="2.920" stroke="black" fill="none" stroke-linecap="round"></path><path d="M 79.500,257.406 C 73.423,253.844 73.627,253.301 68.500,248.406" stroke-width="2.961" stroke="black" fill="none" stroke-linecap="round"></path><path d="M 68.500,248.406 C 62.627,242.801 62.883,242.507 57.500,236.406" stroke-width="2.838" stroke="black" fill="none" stroke-linecap="round"></path><path d="M 128.500,109.406 C 134.500,109.406 134.500,109.406 140.500,109.406" stroke-width="5.233" stroke="black" fill="none" stroke-linecap="round"></path><path d="M 140.500,109.406 C 147.500,109.406 147.537,108.842 154.500,109.406" stroke-width="3.518" stroke="black" fill="none" stroke-linecap="round"></path><path d="M 154.500,109.406 C 166.037,110.342 165.960,111.519 177.500,112.406" stroke-width="2.635" stroke="black" fill="none" stroke-linecap="round"></path><path d="M 177.500,112.406 C 185.460,113.019 185.509,112.664 193.500,112.406" stroke-width="2.866" stroke="black" fill="none" stroke-linecap="round"></path><path d="M 193.500,112.406 C 201.009,112.164 200.995,111.764 208.500,111.406" stroke-width="2.948" stroke="black" fill="none" stroke-linecap="round"></path><path d="M 127.500,145.406 C 133.000,145.906 133.000,145.906 138.500,146.406" stroke-width="5.256" stroke="black" fill="none" stroke-linecap="round"></path><path d="M 138.500,146.406 C 144.000,146.906 143.994,146.983 149.500,147.406" stroke-width="3.811" stroke="black" fill="none" stroke-linecap="round"></path><path d="M 149.500,147.406 C 156.994,147.983 156.993,148.128 164.500,148.406" stroke-width="3.193" stroke="black" fill="none" stroke-linecap="round"></path><path d="M 164.500,148.406 C 170.493,148.628 170.500,148.406 176.500,148.406" stroke-width="3.318" stroke="black" fill="none" stroke-linecap="round"></path><path d="M 128.500,242.406 C 128.500,248.906 127.204,249.187 128.500,255.406" stroke-width="3.866" stroke="black" fill="none" stroke-linecap="round"></path><path d="M 128.500,255.406 C 129.704,261.187 129.579,262.485 133.500,266.406" stroke-width="3.442" stroke="black" fill="none" stroke-linecap="round"></path><path d="M 133.500,266.406 C 136.579,269.485 137.875,268.676 142.500,269.406" stroke-width="4.060" stroke="black" fill="none" stroke-linecap="round"></path><path d="M 142.500,269.406 C 147.375,270.176 147.500,269.406 152.500,269.406" stroke-width="3.555" stroke="black" fill="none" stroke-linecap="round"></path><path d="M 152.500,269.406 C 155.500,269.406 155.938,270.589 158.500,269.406" stroke-width="3.956" stroke="black" fill="none" stroke-linecap="round"></path><path d="M 158.500,269.406 C 162.438,267.589 163.061,267.217 165.500,263.406" stroke-width="3.788" stroke="black" fill="none" stroke-linecap="round"></path><path d="M 165.500,263.406 C 171.061,254.717 170.882,254.228 174.500,244.406" stroke-width="2.724" stroke="black" fill="none" stroke-linecap="round"></path><path d="M 174.500,244.406 C 177.882,235.228 177.324,234.981 179.500,225.406" stroke-width="2.643" stroke="black" fill="none" stroke-linecap="round"></path><path d="M 179.500,225.406 C 182.324,212.981 182.462,212.972 184.500,200.406" stroke-width="2.355" stroke="black" fill="none" stroke-linecap="round"></path><path d="M 184.500,200.406 C 185.462,194.472 185.184,194.414 185.500,188.406" stroke-width="2.941" stroke="black" fill="none" stroke-linecap="round"></path><path d="M 185.500,188.406 C 185.684,184.914 184.333,182.573 185.500,181.406" stroke-width="3.560" stroke="black" fill="none" stroke-linecap="round"></path><path d="M 185.500,181.406 C 186.333,180.573 187.338,183.159 189.500,184.406" stroke-width="4.691" stroke="black" fill="none" stroke-linecap="round"></path><path d="M 189.500,184.406 C 200.338,190.659 200.359,190.685 211.500,196.406" stroke-width="2.689" stroke="black" fill="none" stroke-linecap="round"></path><path d="M 211.500,196.406 C 218.859,200.185 219.103,199.708 226.500,203.406" stroke-width="2.800" stroke="black" fill="none" stroke-linecap="round"></path><path d="M 226.500,203.406 C 230.103,205.208 231.340,204.629 233.500,207.406" stroke-width="3.398" stroke="black" fill="none" stroke-linecap="round"></path><path d="M 233.500,207.406 C 234.840,209.129 234.448,210.193 233.500,212.406" stroke-width="4.414" stroke="black" fill="none" stroke-linecap="round"></path><path d="M 233.500,212.406 C 231.448,217.193 230.024,216.674 227.500,221.406" stroke-width="3.616" stroke="black" fill="none" stroke-linecap="round"></path><path d="M 227.500,221.406 C 226.024,224.174 226.580,224.436 225.500,227.406" stroke-width="3.942" stroke="black" fill="none" stroke-linecap="round"></path><path d="M 225.500,227.406 C 224.580,229.936 224.290,229.838 223.500,232.406" stroke-width="4.167" stroke="black" fill="none" stroke-linecap="round"></path><path d="M 223.500,232.406 C 222.290,236.338 222.363,236.378 221.500,240.406" stroke-width="3.838" stroke="black" fill="none" stroke-linecap="round"></path><path d="M 221.500,240.406 C 220.863,243.378 221.183,243.447 220.500,246.406" stroke-width="4.046" stroke="black" fill="none" stroke-linecap="round"></path><path d="M 220.500,246.406 C 219.683,249.947 219.010,249.838 218.500,253.406" stroke-width="3.918" stroke="black" fill="none" stroke-linecap="round"></path><path d="M 218.500,253.406 C 218.010,256.838 218.169,261.565 218.500,260.406" stroke-width="3.964" stroke="black" fill="none" stroke-linecap="round"></path><path d="M 271.500,201.406 C 271.500,205.906 271.995,205.947 271.500,210.406" stroke-width="4.843" stroke="black" fill="none" stroke-linecap="round"></path><path d="M 271.500,210.406 C 270.495,219.447 270.632,219.572 268.500,228.406" stroke-width="3.125" stroke="black" fill="none" stroke-linecap="round"></path><path d="M 268.500,228.406 C 267.132,234.072 266.482,233.900 264.500,239.406" stroke-width="3.267" stroke="black" fill="none" stroke-linecap="round"></path><path d="M 264.500,239.406 C 261.982,246.400 261.533,246.291 259.500,253.406" stroke-width="3.013" stroke="black" fill="none" stroke-linecap="round"></path><path d="M 259.500,253.406 C 258.533,256.791 258.793,256.892 258.500,260.406" stroke-width="3.584" stroke="black" fill="none" stroke-linecap="round"></path><circle r="1.5" cx="263.5" cy="174.40625" fill="black"></circle><path d="M 279.500,238.406 C 287.500,238.406 287.512,238.692 295.500,238.406" stroke-width="5.073" stroke="black" fill="none" stroke-linecap="round"></path><path d="M 295.500,238.406 C 301.512,238.192 301.593,238.434 307.500,237.406" stroke-width="3.607" stroke="black" fill="none" stroke-linecap="round"></path><path d="M 307.500,237.406 C 313.093,236.434 313.160,236.348 318.500,234.406" stroke-width="3.435" stroke="black" fill="none" stroke-linecap="round"></path><path d="M 318.500,234.406 C 324.160,232.348 324.271,232.348 329.500,229.406" stroke-width="3.271" stroke="black" fill="none" stroke-linecap="round"></path><path d="M 329.500,229.406 C 332.271,227.848 332.111,227.530 334.500,225.406" stroke-width="3.760" stroke="black" fill="none" stroke-linecap="round"></path><path d="M 334.500,225.406 C 336.611,223.530 337.600,223.927 338.500,221.406" stroke-width="4.028" stroke="black" fill="none" stroke-linecap="round"></path><path d="M 338.500,221.406 C 340.100,216.927 341.867,213.300 339.500,211.406" stroke-width="4.223" stroke="black" fill="none" stroke-linecap="round"></path><path d="M 339.500,211.406 C 336.867,209.300 333.370,211.099 328.500,213.406" stroke-width="4.643" stroke="black" fill="none" stroke-linecap="round"></path><path d="M 328.500,213.406 C 323.870,215.599 324.648,217.088 320.500,220.406" stroke-width="3.747" stroke="black" fill="none" stroke-linecap="round"></path><path d="M 320.500,220.406 C 314.648,225.088 314.277,224.649 308.500,229.406" stroke-width="3.114" stroke="black" fill="none" stroke-linecap="round"></path><path d="M 308.500,229.406 C 305.777,231.649 306.124,232.045 303.500,234.406" stroke-width="3.669" stroke="black" fill="none" stroke-linecap="round"></path><path d="M 303.500,234.406 C 301.124,236.545 299.385,235.750 298.500,238.406" stroke-width="3.906" stroke="black" fill="none" stroke-linecap="round"></path><path d="M 298.500,238.406 C 297.385,241.750 297.429,243.300 299.500,246.406" stroke-width="4.542" stroke="black" fill="none" stroke-linecap="round"></path><path d="M 299.500,246.406 C 302.429,250.800 303.662,250.429 308.500,253.406" stroke-width="3.650" stroke="black" fill="none" stroke-linecap="round"></path><path d="M 308.500,253.406 C 316.662,258.429 316.614,258.967 325.500,262.406" stroke-width="2.731" stroke="black" fill="none" stroke-linecap="round"></path><path d="M 325.500,262.406 C 332.114,264.967 332.398,264.874 339.500,265.406" stroke-width="2.949" stroke="black" fill="none" stroke-linecap="round"></path><path d="M 339.500,265.406 C 352.398,266.374 352.664,266.659 365.500,265.406" stroke-width="2.334" stroke="black" fill="none" stroke-linecap="round"></path><path d="M 365.500,265.406 C 373.164,264.659 373.742,264.785 380.500,261.406" stroke-width="2.728" stroke="black" fill="none" stroke-linecap="round"></path><path d="M 380.500,261.406 C 385.742,258.785 391.823,252.787 389.500,253.406" stroke-width="3.100" stroke="black" fill="none" stroke-linecap="round"></path><path d="M 420.500,208.406 C 416.500,206.906 416.622,206.231 412.500,205.406" stroke-width="4.877" stroke="black" fill="none" stroke-linecap="round"></path><path d="M 412.500,205.406 C 409.122,204.731 409.000,205.406 405.500,205.406" stroke-width="4.160" stroke="black" fill="none" stroke-linecap="round"></path><path d="M 405.500,205.406 C 402.500,205.406 402.271,204.436 399.500,205.406" stroke-width="4.201" stroke="black" fill="none" stroke-linecap="round"></path><path d="M 399.500,205.406 C 392.271,207.936 391.575,207.778 385.500,212.406" stroke-width="3.221" stroke="black" fill="none" stroke-linecap="round"></path><path d="M 385.500,212.406 C 381.075,215.778 381.107,216.429 378.500,221.406" stroke-width="3.265" stroke="black" fill="none" stroke-linecap="round"></path><path d="M 378.500,221.406 C 375.607,226.929 375.325,227.216 374.500,233.406" stroke-width="3.178" stroke="black" fill="none" stroke-linecap="round"></path><path d="M 374.500,233.406 C 373.325,242.216 372.860,242.877 374.500,251.406" stroke-width="2.787" stroke="black" fill="none" stroke-linecap="round"></path><path d="M 374.500,251.406 C 375.360,255.877 375.998,256.605 379.500,259.406" stroke-width="3.320" stroke="black" fill="none" stroke-linecap="round"></path><path d="M 379.500,259.406 C 383.498,262.605 384.339,262.048 389.500,263.406" stroke-width="3.349" stroke="black" fill="none" stroke-linecap="round"></path><path d="M 389.500,263.406 C 393.839,264.548 394.189,265.227 398.500,264.406" stroke-width="3.516" stroke="black" fill="none" stroke-linecap="round"></path><path d="M 398.500,264.406 C 404.689,263.227 405.727,263.618 410.500,259.406" stroke-width="3.279" stroke="black" fill="none" stroke-linecap="round"></path><path d="M 410.500,259.406 C 422.727,248.618 422.742,247.789 432.500,234.406" stroke-width="2.106" stroke="black" fill="none" stroke-linecap="round"></path><path d="M 432.500,234.406 C 440.242,223.789 439.997,223.369 445.500,211.406" stroke-width="2.117" stroke="black" fill="none" stroke-linecap="round"></path><path d="M 445.500,211.406 C 451.497,198.369 451.460,198.191 455.500,184.406" stroke-width="2.097" stroke="black" fill="none" stroke-linecap="round"></path><path d="M 455.500,184.406 C 459.960,169.191 459.838,169.000 462.500,153.406" stroke-width="1.999" stroke="black" fill="none" stroke-linecap="round"></path><path d="M 462.500,153.406 C 463.338,148.500 464.197,147.769 462.500,143.406" stroke-width="2.876" stroke="black" fill="none" stroke-linecap="round"></path><path d="M 462.500,143.406 C 460.697,138.769 459.820,137.836 455.500,135.406" stroke-width="3.211" stroke="black" fill="none" stroke-linecap="round"></path><path d="M 455.500,135.406 C 451.820,133.336 450.258,133.064 446.500,134.406" stroke-width="3.984" stroke="black" fill="none" stroke-linecap="round"></path><path d="M 446.500,134.406 C 443.258,135.564 443.490,137.089 441.500,140.406" stroke-width="3.780" stroke="black" fill="none" stroke-linecap="round"></path><path d="M 441.500,140.406 C 438.990,144.589 438.490,144.656 437.500,149.406" stroke-width="3.624" stroke="black" fill="none" stroke-linecap="round"></path><path d="M 437.500,149.406 C 435.990,156.656 436.344,156.904 436.500,164.406" stroke-width="3.152" stroke="black" fill="none" stroke-linecap="round"></path><path d="M 436.500,164.406 C 436.844,180.904 437.105,180.941 438.500,197.406" stroke-width="2.166" stroke="black" fill="none" stroke-linecap="round"></path><path d="M 438.500,197.406 C 439.605,210.441 440.316,210.377 441.500,223.406" stroke-width="2.200" stroke="black" fill="none" stroke-linecap="round"></path><path d="M 441.500,223.406 C 442.816,237.877 442.792,237.896 443.500,252.406" stroke-width="2.112" stroke="black" fill="none" stroke-linecap="round"></path><path d="M 443.500,252.406 C 443.792,258.396 443.500,258.406 443.500,264.406" stroke-width="2.822" stroke="black" fill="none" stroke-linecap="round"></path><path d="M 443.500,264.406 C 443.500,269.406 444.719,272.882 443.500,274.406" stroke-width="3.241" stroke="black" fill="none" stroke-linecap="round"></path><path d="M 449.500,255.406 C 451.500,258.406 450.467,260.336 453.500,261.406" stroke-width="4.950" stroke="black" fill="none" stroke-linecap="round"></path><path d="M 453.500,261.406 C 458.967,263.336 460.609,263.844 466.500,261.406" stroke-width="4.299" stroke="black" fill="none" stroke-linecap="round"></path><path d="M 466.500,261.406 C 489.609,251.844 489.900,250.841 511.500,237.406" stroke-width="1.762" stroke="black" fill="none" stroke-linecap="round"></path><path d="M 511.500,237.406 C 530.900,225.341 532.078,226.093 548.500,210.406" stroke-width="1.536" stroke="black" fill="none" stroke-linecap="round"></path><path d="M 548.500,210.406 C 565.578,194.093 566.921,193.854 578.500,173.406" stroke-width="1.449" stroke="black" fill="none" stroke-linecap="round"></path><path d="M 578.500,173.406 C 590.421,152.354 588.781,150.725 595.500,127.406" stroke-width="1.448" stroke="black" fill="none" stroke-linecap="round"></path><path d="M 595.500,127.406 C 597.281,121.225 597.744,119.214 595.500,114.406" stroke-width="2.343" stroke="black" fill="none" stroke-linecap="round"></path><path d="M 595.500,114.406 C 594.244,111.714 591.940,111.695 588.500,112.406" stroke-width="3.270" stroke="black" fill="none" stroke-linecap="round"></path><path d="M 588.500,112.406 C 577.440,114.695 576.646,114.731 566.500,120.406" stroke-width="2.511" stroke="black" fill="none" stroke-linecap="round"></path><path d="M 566.500,120.406 C 547.146,131.231 547.269,131.926 529.500,145.406" stroke-width="1.752" stroke="black" fill="none" stroke-linecap="round"></path><path d="M 529.500,145.406 C 503.769,164.926 503.764,165.094 479.500,186.406" stroke-width="1.252" stroke="black" fill="none" stroke-linecap="round"></path><path d="M 479.500,186.406 C 466.764,197.594 466.323,197.419 455.500,210.406" stroke-width="1.633" stroke="black" fill="none" stroke-linecap="round"></path><path d="M 455.500,210.406 C 443.823,224.419 444.403,225.040 434.500,240.406" stroke-width="1.781" stroke="black" fill="none" stroke-linecap="round"></path><path d="M 434.500,240.406 C 429.903,247.540 427.839,247.374 426.500,255.406" stroke-width="2.396" stroke="black" fill="none" stroke-linecap="round"></path><path d="M 426.500,255.406 C 424.839,265.374 424.548,267.590 428.500,276.406" stroke-width="2.529" stroke="black" fill="none" stroke-linecap="round"></path><path d="M 428.500,276.406 C 431.048,282.090 433.364,281.747 439.500,284.406" stroke-width="2.918" stroke="black" fill="none" stroke-linecap="round"></path><path d="M 439.500,284.406 C 448.364,288.247 448.869,287.707 458.500,289.406" stroke-width="2.695" stroke="black" fill="none" stroke-linecap="round"></path><path d="M 458.500,289.406 C 465.869,290.707 465.993,290.118 473.500,290.406" stroke-width="2.892" stroke="black" fill="none" stroke-linecap="round"></path><path d="M 473.500,290.406 C 478.993,290.618 479.000,290.406 484.500,290.406" stroke-width="3.187" stroke="black" fill="none" stroke-linecap="round"></path><path d="M 484.500,290.406 C 488.000,290.406 488.000,290.406 491.500,290.406" stroke-width="4.095" stroke="black" fill="none" stroke-linecap="round"></path><path d="M 491.500,290.406 C 496.000,290.406 501.760,290.406 500.500,290.406" stroke-width="3.847" stroke="black" fill="none" stroke-linecap="round"></path><path d="M 578.500,242.406 C 578.500,246.406 579.089,246.479 578.500,250.406" stroke-width="5.172" stroke="black" fill="none" stroke-linecap="round"></path><path d="M 578.500,250.406 C 577.589,256.479 577.563,256.594 575.500,262.406" stroke-width="3.589" stroke="black" fill="none" stroke-linecap="round"></path><path d="M 575.500,262.406 C 572.063,272.094 571.560,271.932 567.500,281.406" stroke-width="2.786" stroke="black" fill="none" stroke-linecap="round"></path><path d="M 567.500,281.406 C 565.560,285.932 565.147,285.794 563.500,290.406" stroke-width="3.287" stroke="black" fill="none" stroke-linecap="round"></path><path d="M 563.500,290.406 C 562.647,292.794 561.937,296.392 562.500,295.406" stroke-width="3.985" stroke="black" fill="none" stroke-linecap="round"></path><path d="M 562.500,295.406 C 563.937,292.892 565.086,289.441 567.500,283.406" stroke-width="4.436" stroke="black" fill="none" stroke-linecap="round"></path><circle r="1.5" cx="589.5" cy="204.40625" fill="black"></circle></svg>